<?xml version="1.0" encoding="UTF-8"?>
<svg width="100px" height="100px" viewBox="0 0 100 100" version="1.1" xmlns="http://www.w3.org/2000/svg" xmlns:xlink="http://www.w3.org/1999/xlink">
    <title>iPhone 11</title>
    <g id="iPhone-11" stroke="none" stroke-width="1" fill="none" fill-rule="evenodd">
        <path d="M46,0 L46.0003407,32.4459555 C39.2705559,33.9728865 33.9728865,39.2705559 32.4459555,46.0003407 L0,46 L0,0 L46,0 Z" id="Combined-Shape" fill="#D8D8D8"></path>
        <path d="M46.0003407,67.5540445 L46,100 L0,100 L0,54 L32.4460569,54.000106 C33.9731209,60.7296785 39.2707048,66.0271473 46.0003407,67.5540445 Z" id="Combined-Shape" fill="#D8D8D8"></path>
        <path d="M100,54 L100,100 L54,100 L54.000106,67.5539431 C60.7295296,66.0269128 66.0269128,60.7295296 67.5539431,54.000106 L100,54 Z" id="Combined-Shape" fill="#D8D8D8"></path>
        <path d="M100,0 L100,46 L67.5540445,46.0003407 C66.0271473,39.2707048 60.7296785,33.9731209 54.000106,32.4460569 L54,0 L100,0 Z" id="Combined-Shape" fill="#D8D8D8"></path>
    </g>
</svg>