<?xml version="1.0" encoding="utf-8"?>
<!-- Generator: Adobe Illustrator 23.0.2, SVG Export Plug-In . SVG Version: 6.00 Build 0)  -->
<svg version="1.1" id="图层_1" xmlns="http://www.w3.org/2000/svg" xmlns:xlink="http://www.w3.org/1999/xlink" x="0px" y="0px"
	 viewBox="0 0 1920 1080" style="enable-background:new 0 0 1920 1080;" xml:space="preserve">
<g>
	<path d="M730.11,354.48L730.11,354.48c-2.02-1.04-2.77-3.57-1.64-5.54c9.05-15.79,22.51-29.03,38.49-37.86
		c1.99-1.1,4.5-0.31,5.51,1.73l0,0c0.96,1.92,0.22,4.24-1.66,5.28c-14.69,8.12-27.07,20.29-35.39,34.81
		C734.35,354.77,732.02,355.47,730.11,354.48z"/>
</g>
<path d="M896.71,368.46c-6.2-35.32-31.1-64.53-65.1-76.47c-0.7-0.61-1.61-0.99-2.61-0.99c-2.21,0-4,1.79-4,4
	c0,1.93,1.37,3.54,3.19,3.92l-0.1,0.31c31.72,10.79,55,37.85,60.75,70.62c0.55,3.12-0.27,6.26-2.25,8.61
	c-1.73,2.06-4.07,3.19-6.59,3.19H716.66c-2.52,0-4.86-1.13-6.59-3.19c-1.98-2.35-2.79-5.49-2.25-8.61
	c7.68-43.76,45.74-75.52,90.5-75.52c1.28,0,2.57,0.03,3.84,0.08l0.02-0.43c2.12-0.1,3.81-1.84,3.81-3.98c0-0.65-0.17-1.25-0.44-1.8
	c20.06-3.56,35.16-21.66,33.96-42.98c-1.16-20.55-17.69-37.32-38.22-38.77c-24.08-1.69-44.22,17.42-44.22,41.15
	c0,18.57,12.33,34.3,29.24,39.46c-43.31,5.15-78.71,37.78-86.37,81.4c-0.96,5.46,0.5,10.97,4,15.14c3.23,3.84,7.86,6.05,12.72,6.05
	H880c4.85,0,9.49-2.2,12.72-6.05C896.21,379.44,897.67,373.92,896.71,368.46z M765.27,251.21c-2.24-21.16,15.51-38.91,36.67-36.67
	c15.42,1.63,27.82,14.03,29.45,29.45c2.24,21.16-15.51,38.91-36.67,36.67C779.3,279.03,766.9,266.63,765.27,251.21z"/>
</svg>
