<?xml version="1.0" encoding="UTF-8"?>
<svg width="24px" height="24px" viewBox="0 0 24 24" version="1.1" xmlns="http://www.w3.org/2000/svg" xmlns:xlink="http://www.w3.org/1999/xlink">
    <title>左箭头</title>
    <g id="左箭头" stroke="none" stroke-width="1" fill="none" fill-rule="evenodd">
        <path d="M10.4326172,19.3808594 C10.9306641,19.3808594 11.3017578,19.0195312 11.3017578,18.5214844 C11.3017578,18.2773438 11.2138672,18.0527344 11.0576172,17.8964844 L8.98730469,15.7871094 L6.00878906,13.0820312 L8.22558594,13.21875 L19.7392578,13.21875 C20.2666016,13.21875 20.6279297,12.8476562 20.6279297,12.3300781 C20.6279297,11.8027344 20.2666016,11.4316406 19.7392578,11.4316406 L8.22558594,11.4316406 L6.01855469,11.5683594 L8.98730469,8.86328125 L11.0576172,6.75390625 C11.2138672,6.59765625 11.3017578,6.37304688 11.3017578,6.12890625 C11.3017578,5.63085938 10.9306641,5.26953125 10.4326172,5.26953125 C10.1982422,5.26953125 9.98339844,5.35742188 9.76855469,5.5625 L3.66503906,11.65625 C3.46972656,11.8417969 3.36230469,12.0761719 3.36230469,12.3300781 C3.36230469,12.5742188 3.46972656,12.8085938 3.66503906,12.9941406 L9.78808594,19.1074219 C9.98339844,19.2929688 10.1982422,19.3808594 10.4326172,19.3808594 Z" id="001" fill="#000000" fill-rule="nonzero"></path>
    </g>
</svg>